<?xml version="1.0" encoding="UTF-8" standalone="no"?>
<!-- Created with Inkscape (http://www.inkscape.org/) -->

<svg
   width="59.931641"
   height="59.931629"
   viewBox="0 0 15.856913 15.85691"
   version="1.1"
   id="svg1"
   xmlns="http://www.w3.org/2000/svg"
   xmlns:svg="http://www.w3.org/2000/svg">
  <defs
     id="defs1">
    <clipPath
       clipPathUnits="userSpaceOnUse"
       id="clipPath7-3">
      <rect
         style="opacity:1;fill:none;fill-opacity:1;stroke:none;stroke-width:0.345567;stroke-dasharray:none;stroke-opacity:1"
         id="rect8-1"
         width="75.91127"
         height="9.1093531"
         x="81.039734"
         y="460.00797" />
    </clipPath>
    <clipPath
       clipPathUnits="userSpaceOnUse"
       id="clipPath15">
      <rect
         style="opacity:1;fill:none;fill-opacity:1;stroke:none;stroke-width:0.345567;stroke-dasharray:none;stroke-opacity:1"
         id="rect16"
         width="7.848002"
         height="3.7759259"
         x="81.148697"
         y="456.34268" />
    </clipPath>
  </defs>
  <g
     id="layer3"
     transform="translate(-34.251312,-6.1754108)">
    <g
       id="g67"
       transform="translate(19.69599,31.785253)">
      <g
         id="g66"
         transform="translate(-0.09107929,-0.15939591)">
        <g
           id="g13"
           transform="translate(18.523172,-25.334368)">
          <path
             d="m 86.145437,463.2419 q -0.48,0 -0.852,-0.312 -0.36,-0.312 -0.36,-0.888 0,-0.564 0.36,-0.876 0.372,-0.312 0.852,-0.312 0.468001,0 0.828001,0.312 0.372,0.312 0.372,0.876 0,0.576 -0.372,0.888 -0.36,0.312 -0.828001,0.312 z m 0,-4.068 q -0.48,0 -0.852,-0.312 -0.36,-0.312 -0.36,-0.888 0,-0.564 0.36,-0.876 0.372,-0.312 0.852,-0.312 0.468001,0 0.828001,0.312 0.372,0.312 0.372,0.876 0,0.576 -0.372,0.888 -0.36,0.312 -0.828001,0.312 z"
             id="text1-23-2"
             style="font-weight:bold;font-family:'Ubuntu Mono';-inkscape-font-specification:'Ubuntu Mono Bold';letter-spacing:-0.0519169px;white-space:pre;fill:#0eda29;stroke:#0eda29;stroke-width:0.345567"
             transform="matrix(0.91733202,0,0,0.91733202,-71.361194,-415.05995)"
             aria-label=":" />
        </g>
        <path
           d="m 85.689437,465.3779 q -0.636,0 -1.188,-0.168 -0.551999,-0.156 -1.068,-0.408 l 0.504001,-1.392 q 0.347999,0.18 0.816,0.348 0.479999,0.168 0.863999,0.168 0.42,0 0.648001,-0.252 0.227999,-0.252 0.227999,-0.912 v -4.608 h -2.555999 v -1.368 h 4.212 v 5.892 q 0,1.02 -0.324001,1.608 -0.324,0.6 -0.875999,0.84 -0.552001,0.252 -1.260001,0.252 z m 1.212,-9.36 q -0.42,0 -0.732,-0.288 -0.299999,-0.288 -0.299999,-0.768 0,-0.492 0.299999,-0.768 0.312,-0.288 0.732,-0.288 0.420001,0 0.732,0.288 0.312,0.276 0.312,0.768 0,0.48 -0.312,0.768 -0.311999,0.288 -0.732,0.288 z"
           id="text1-2-8"
           clip-path="url(#clipPath7-3)"
           style="font-weight:bold;font-family:'Ubuntu Mono';-inkscape-font-specification:'Ubuntu Mono Bold';letter-spacing:-0.0519169px;white-space:pre;fill:#0eda29;stroke:#0eda29;stroke-width:0.345567"
           transform="matrix(0.91733202,0,0,0.91733202,-58.6732,-440.58004)"
           aria-label="j" />
      </g>
      <path
         d="m 85.689437,465.3779 q -0.636,0 -1.188,-0.168 -0.551999,-0.156 -1.068,-0.408 l 0.504001,-1.392 q 0.347999,0.18 0.816,0.348 0.479999,0.168 0.863999,0.168 0.42,0 0.648001,-0.252 0.227999,-0.252 0.227999,-0.912 v -4.608 h -2.555999 v -1.368 h 4.212 v 5.892 q 0,1.02 -0.324001,1.608 -0.324,0.6 -0.875999,0.84 -0.552001,0.252 -1.260001,0.252 z m 1.212,-9.36 q -0.42,0 -0.732,-0.288 -0.299999,-0.288 -0.299999,-0.768 0,-0.492 0.299999,-0.768 0.312,-0.288 0.732,-0.288 0.420001,0 0.732,0.288 0.312,0.276 0.312,0.768 0,0.48 -0.312,0.768 -0.311999,0.288 -0.732,0.288 z"
         id="text1-1-1-6"
         clip-path="url(#clipPath15)"
         style="font-weight:bold;font-family:'Ubuntu Mono';-inkscape-font-specification:'Ubuntu Mono Bold';letter-spacing:-0.0519169px;white-space:pre;fill:#0eda29;stroke:#0eda29;stroke-width:0.345567"
         transform="matrix(0.91733203,0,0,0.91733203,-57.68004,-440.4346)"
         aria-label="j" />
      <path
         id="rect63-6"
         style="fill:none;stroke:#0eda29;stroke-width:1.561"
         d="m 15.335824,-24.829342 h 14.295911 v 14.295911 H 15.335824 Z" />
    </g>
  </g>
</svg>
